<?xml version="1.0" standalone="no"?>
<!DOCTYPE svg PUBLIC "-//W3C//DTD SVG 20010904//EN"
 "http://www.w3.org/TR/2001/REC-SVG-20010904/DTD/svg10.dtd">
<svg version="1.0" xmlns="http://www.w3.org/2000/svg"
 width="1080.000000pt" height="1080.000000pt" viewBox="0 0 1080.000000 1080.000000"
 preserveAspectRatio="xMidYMid meet">
<metadata>
Created by potrace 1.14, written by Peter Selinger 2001-2017
</metadata>
<g transform="translate(0.000000,1080.000000) scale(0.100000,-0.100000)"
fill="#000000" stroke="none">
<path d="M5158 10795 c-2 -2 -57 -6 -123 -9 -66 -4 -138 -9 -160 -11 -52 -5
-145 -16 -165 -20 -8 -1 -42 -6 -75 -9 -33 -4 -127 -21 -210 -37 -82 -17 -161
-33 -175 -35 -45 -9 -344 -85 -395 -101 -172 -53 -353 -116 -432 -149 -17 -8
-34 -14 -37 -14 -13 0 -267 -115 -398 -180 -360 -180 -810 -474 -1053 -689
-22 -20 -67 -58 -100 -86 -98 -82 -404 -391 -519 -525 -59 -69 -159 -192 -221
-275 -106 -141 -265 -370 -265 -382 0 -3 -8 -17 -19 -31 -72 -103 -278 -494
-368 -702 -86 -199 -203 -529 -239 -675 -1 -5 -16 -63 -33 -127 -17 -65 -33
-128 -35 -140 -3 -13 -12 -54 -21 -93 -15 -71 -49 -262 -60 -345 -3 -25 -8
-56 -10 -70 -11 -74 -21 -177 -31 -320 -18 -244 -5 -827 21 -980 3 -14 7 -50
10 -80 3 -30 10 -77 15 -105 6 -27 12 -63 14 -80 8 -60 27 -171 36 -205 5 -19
11 -46 13 -60 7 -37 67 -278 82 -330 39 -130 101 -322 121 -375 75 -198 103
-266 166 -405 60 -131 188 -379 228 -440 5 -8 19 -32 31 -54 59 -109 277 -430
395 -581 168 -214 485 -552 662 -705 35 -30 80 -70 100 -88 170 -155 542 -414
832 -579 175 -100 594 -303 655 -318 13 -3 42 -14 80 -30 188 -80 657 -212
925 -259 19 -3 46 -8 60 -11 21 -4 130 -21 255 -40 33 -4 97 -12 160 -20 118
-13 279 -19 530 -20 284 0 419 7 595 30 30 4 69 8 85 10 74 10 112 15 135 20
14 3 45 8 70 11 25 3 47 8 50 9 3 2 26 6 50 10 25 3 86 15 135 27 50 11 101
22 115 24 133 24 576 161 725 225 11 4 47 19 80 32 159 64 451 206 614 298
208 120 483 300 616 406 105 84 204 163 216 174 8 8 50 45 94 84 117 101 376
363 486 490 577 666 974 1436 1180 2292 12 48 23 97 25 108 1 11 10 52 18 92
9 39 18 88 21 108 2 21 7 45 9 54 3 9 8 36 11 61 3 25 8 52 10 60 2 8 6 42 10
75 3 33 8 77 11 98 2 20 6 54 8 75 21 174 28 705 12 892 -4 52 -9 111 -11 130
-6 75 -16 166 -20 190 -2 14 -7 45 -10 70 -7 52 -54 320 -59 335 -3 10 -15 69
-20 95 -1 8 -5 24 -9 35 -3 11 -8 31 -10 45 -9 48 -79 295 -122 425 -133 405
-323 809 -553 1175 -113 180 -340 491 -442 607 -19 21 -62 70 -95 109 -77 89
-381 393 -465 464 -35 30 -83 71 -105 90 -60 53 -247 196 -360 276 -102 72
-370 244 -380 244 -3 0 -22 11 -43 23 -73 47 -420 227 -435 227 -3 0 -43 17
-89 38 -78 36 -147 65 -158 68 -7 1 -42 14 -65 25 -11 5 -47 18 -80 29 -33 12
-69 25 -80 30 -87 35 -498 150 -625 174 -14 2 -58 12 -97 20 -40 9 -87 18
-105 21 -18 3 -44 8 -58 10 -59 12 -57 12 -215 31 -27 3 -52 7 -55 9 -3 2 -50
6 -105 10 -55 3 -120 9 -145 12 -47 5 -607 12 -612 8z"/>
</g>
</svg>
