<svg width="473.65" height="250.13" version="1.1" viewBox="0 0 125.32 66.179" xmlns="http://www.w3.org/2000/svg">
 <g transform="translate(-99.08 -67.096)">
  <g stroke-width=".77674" aria-label="Faraaz">
   <path d="m128.42 97.781q-3.6444 0.07923-6.4174 0.07923 0.8715 1.4261 0.71305 4.199-0.15846 2.6937-0.79227 5.3874-0.63382 2.6937-1.743 6.1005t-2.1391 6.1797q-0.95072 2.773-1.9807 5.6251-0.95072 2.9314-1.3469 4.5952 4.5952-8.2396 13.706-32.166zm-29.314-22.58q-0.15845-0.79227 0.55459-1.03 0 0 13.786-3.5652 24.006-5.7044 25.67-2.1391 0.71304 1.5053-1.5845 8.5565-2.2184 6.972-6.8135 19.173 16.875-0.39614 19.252-0.63382 0.71304 0 0.79227 0.71304 0.0792 0.71304-0.71305 0.8715-1.6638 0.23768-19.886 0.63382-13.548 35.415-16.242 35.494-1.03 0-1.03-1.4261 0-1.9015 1.1884-5.7836 1.1884-3.8821 2.6145-7.8435 1.4261-3.8821 2.6937-8.2396 1.3469-4.3575 1.6638-7.2097 0.31691-2.9314-0.79227-4.7536-0.0792-0.07923-0.15846-0.15845 0 0-3.9614 0-2.5353-0.23768-2.456-1.1884 0.0792-0.31691 0.23768-0.47536 0.23768-0.23768 0.55459-0.31691 0.39614-0.15845 0.71304-0.15845 0.31691-0.07923 0.79228-0.07923 0.55459-0.07923 0.79227-0.07923 2.3768-0.31691 3.9614 0.71304 0.15845 0 0.23768 0 3.3275 0 8.0812-0.07923 3.7237-9.9034 6.259-17.826 2.6145-8.0019 2.3768-9.2696-2.2184-2.0599-32.879 5.4667l6.7343-0.23768 5.7044-0.15845q-0.39613 0.07923-2.3768 0.31691-1.9015 0.15845-4.3575 0.39614-2.3768 0.23768-4.7536 0.39614-2.3768 0.15845-4.0406 0.31691-1.5845 0.15846-1.5845 0.15846-0.31691 0.07923-0.63382-0.07923-0.31691-0.15846-0.39614-0.47536z"/>
   <path d="m141.07 99.762q0.23768 0.23768 0.23768 0.55459t-0.23768 0.55459q-0.15846 0.23768-0.55459 0.23768-0.39614 0-1.1092 1.03-0.79227 1.03-1.1092 2.2976-0.39613 1.5846 0.15846 1.6638 0.8715 0.23769 2.6145-2.2976 1.8222-2.6145 2.3768-3.8821 0.39614-0.79227 1.1884-0.31691 0.47536 0.31691 0.31691 0.8715-0.15846 0.8715-0.23768 1.9807-0.0792 3.3276 2.2976 3.4068 1.3469 0 3.7237-1.5845 2.456-1.6638 3.7237-2.773 1.3469-1.1884 1.8222-1.743 0.55459-0.55459 1.1092 0 0.63382 0.55459 0.0792 1.1092-0.31691 0.23768-0.79227 0.71304-0.39614 0.47537-1.743 1.6638-1.2676 1.1092-2.456 1.9807-1.1884 0.87149-2.773 1.5845-1.5845 0.63382-2.773 0.63382-3.2483-0.0792-3.7237-3.8029-2.9314 4.5952-5.1498 4.0406-2.0599-0.55459-1.3469-3.6444 0.39614-1.6638 1.5053-3.0899 1.03-1.4261 2.2976-1.4261 0.39613 0 0.55459 0.23768z"/>
   <path d="m156.83 98.811q1.03-1.4261 1.4261-2.2976-0.31691 0.15845-0.63382 0.31691-0.63382 0.39614-0.8715 1.03-0.23768 0.63382 0.0792 0.95073zm1.4261 0.71304q1.1092 0.15845 2.6937-0.15846 0.31691-0.07923 0.55459 0.15846 0.31691 0.23768 0.31691 0.55459 0.0792 0.15845 0 0.39613-0.15845 0.23768-0.55459 1.4261-0.31691 1.1092-0.71305 2.6937-0.39613 1.5845-0.23768 2.0599 1.5846-0.0792 4.2783-1.9015 2.6937-1.9014 4.0406-3.0899 1.4261-1.2676 1.9807-1.9015 0.55459-0.55459 1.1092 0 0.63382 0.55459 0.0792 1.1092-0.31691 0.31691-0.79227 0.79227-0.47537 0.47536-1.9807 1.743-1.4261 1.2676-2.773 2.2976-1.3469 0.95073-3.0106 1.743t-3.0106 0.79227q-1.5846 0-1.5053-2.1391 0-1.6638 1.1092-4.9913-1.5845 0.15846-2.6937-0.23768-0.55459 0.15845-0.87149-0.0792-0.15846-0.15845-0.31691-0.55459-0.8715-0.8715-0.79228-1.9807 0-1.1884 0.79228-2.0599 0.8715-1.03 2.2184-1.2676 1.5053-0.31691 1.743 1.03 0.15845 1.03-1.6638 3.5652z"/>
   <path d="m172.17 99.762q0.23768 0.23768 0.23768 0.55459t-0.23768 0.55459q-0.15846 0.23768-0.55459 0.23768-0.39614 0-1.1092 1.03-0.79227 1.03-1.1092 2.2976-0.39614 1.5846 0.15845 1.6638 0.8715 0.23769 2.6145-2.2976 1.8222-2.6145 2.3768-3.8821 0.39613-0.79227 1.1884-0.31691 0.47537 0.31691 0.31691 0.8715-0.15845 0.8715-0.23768 1.9807-0.0792 3.3276 2.2976 3.4068 1.3469 0 3.7237-1.5845 2.456-1.6638 3.7237-2.773 1.3469-1.1884 1.8222-1.743 0.55459-0.55459 1.1092 0 0.63382 0.55459 0.0792 1.1092-0.31691 0.23768-0.79227 0.71304-0.39614 0.47537-1.743 1.6638-1.2676 1.1092-2.456 1.9807-1.1884 0.87149-2.773 1.5845-1.5845 0.63382-2.773 0.63382-3.2483-0.0792-3.7237-3.8029-2.9314 4.5952-5.1498 4.0406-2.0599-0.55459-1.3469-3.6444 0.39614-1.6638 1.5053-3.0899 1.03-1.4261 2.2976-1.4261 0.39613 0 0.55459 0.23768z"/>
   <path d="m188.88 99.762q0.23768 0.23768 0.23768 0.55459t-0.23768 0.55459q-0.15845 0.23768-0.55459 0.23768t-1.1092 1.03q-0.79227 1.03-1.1092 2.2976-0.39614 1.5846 0.15845 1.6638 0.8715 0.23769 2.6145-2.2976 1.8222-2.6145 2.3768-3.8821 0.39613-0.79227 1.1884-0.31691 0.47537 0.31691 0.31691 0.8715-0.15845 0.8715-0.23768 1.9807-0.0792 3.3276 2.2976 3.4068 1.3469 0 3.7237-1.5845 2.456-1.6638 3.7237-2.773 1.3469-1.1884 1.8222-1.743 0.55459-0.55459 1.1092 0 0.63382 0.55459 0.0792 1.1092-0.31691 0.23768-0.79227 0.71304-0.39614 0.47537-1.743 1.6638-1.2676 1.1092-2.456 1.9807-1.1884 0.87149-2.773 1.5845-1.5845 0.63382-2.773 0.63382-3.2483-0.0792-3.7237-3.8029-2.9314 4.5952-5.1498 4.0406-2.0599-0.55459-1.3469-3.6444 0.39614-1.6638 1.5053-3.0899 1.03-1.4261 2.2976-1.4261 0.39614 0 0.55459 0.23768z"/>
   <path d="m204.4 100.4q-0.0792-0.79228 0.71305-0.8715 9.9826-1.2676 10.22 0.71304 0.0792 0.63382-2.0599 2.6937-2.1391 1.9807-4.6744 4.199-2.456 2.1391-3.0106 2.9314 3.7237-0.87149 17.509-10.379 0.63382-0.47536 1.1092 0.15846 0.47537 0.63381-0.23768 1.1092 0 0-7.5266 5.229-9.9826 6.4966-12.043 5.3082-1.1092-0.71304-0.0792-2.3768 0.71305-1.03 2.2184-2.5353 1.5053-1.5053 3.8029-3.4068 2.2976-1.9807 2.6937-2.3768-2.456-0.0792-7.8435 0.31691-0.3169 0-0.55459-0.15845-0.23768-0.23769-0.23768-0.55459z"/>
  </g>
 </g>
</svg>
