<svg id="Capa_1" enable-background="new 0 0 512 512" height="512" viewBox="0 0 512 512" width="512" xmlns="http://www.w3.org/2000/svg"><g><g><g><g><g><path d="m463.893 380.841h-441.376c-6.901 0-12.937 4.655-14.7 11.337 0 0-7.069 25.478-7.817 26.791v45.734c.748 8.41 7.555 15.228 15.952 15.228h174.88c5.63 0 10.888 3.069 13.433 8.098 6.945 13.718 20.9 23.27 37.149 23.927 1.193.058 2.388.058 3.581 0 16.249-.658 30.203-10.209 37.149-23.927 2.546-5.029 7.804-8.098 13.433-8.098h174.88c8.397 0 15.205-6.818 15.205-15.228v-43.755c0-1.313-.17-2.621-.505-3.891l-6.564-24.879c-1.763-6.682-7.798-11.337-14.7-11.337z" fill="#8bb9ff"/><path d="m478.594 392.178c-1.763-6.682-7.799-11.338-14.7-11.338h-220.214v131.148c.439-.006.877-.011 1.316-.032 16.249-.657 30.203-10.209 37.149-23.927 2.546-5.029 7.804-8.097 13.433-8.097h174.88c8.397 0 15.205-6.818 15.952-15.228v-45.734c-.747-1.313-7.816-26.792-7.816-26.792z" fill="#7d81e7"/></g></g><g><path d="m190.795 418.97c22.78 0 37.589 9.297 45.449 16.207 3.945 3.468 9.797 3.474 13.747.013 7.884-6.911 22.735-16.219 45.529-16.219h190.89v-377.609c0-8.297-6.716-15.023-15-15.023h-158.351c-28.252 0-58.949 17.142-69.854 41.755-10.904-24.613-41.601-41.755-69.854-41.755h-158.351c-8.284 0-15 6.726-15 15.023v377.608z" fill="#f9f2f2"/><path d="m313.059 26.339c-27.864 0-58.092 16.68-69.379 40.75v370.665c2.261-.121 4.491-.97 6.313-2.567 7.885-6.91 22.735-16.216 45.526-16.216h190.891v-377.609c0-8.297-6.716-15.023-15-15.023z" fill="#e7e2ee"/></g></g><g><g fill="#e7e2ee"><path d="m187.155 290.446h-112.31c-8.284 0-15 6.726-15 15.023s6.716 15.023 15 15.023h112.31c8.284 0 15-6.726 15-15.023 0-8.296-6.716-15.023-15-15.023z"/><path d="m187.155 230.354h-112.31c-8.284 0-15 6.726-15 15.023s6.716 15.023 15 15.023h112.31c8.284 0 15-6.726 15-15.023s-6.716-15.023-15-15.023z"/><path d="m187.155 170.262h-112.31c-8.284 0-15 6.726-15 15.023s6.716 15.023 15 15.023h112.31c8.284 0 15-6.726 15-15.023s-6.716-15.023-15-15.023z"/><path d="m74.845 140.216h112.31c8.284 0 15-6.726 15-15.023s-6.716-15.023-15-15.023h-112.31c-8.284 0-15 6.726-15 15.023 0 8.296 6.716 15.023 15 15.023z"/></g></g></g><g><g><path d="m273.827 289.963-59.839 23.493c-9.38 3.682-18.64-5.592-14.963-14.986l23.457-59.931 31.866 17.751z" fill="#d5d3ea"/><path d="m254.992 257.403-53.381 53.464c3.028 3.033 7.688 4.43 12.378 2.589l59.839-23.493z" fill="#aaa5d3"/></g><g><path d="m273.827 289.963-51.345-51.423 206.867-207.186 32.744 18.63 18.601 32.794z" fill="#ffe278"/><path d="m462.093 49.984-213.938 214.267 25.672 25.712 206.867-207.185z" fill="#ffc178"/></g><g><path d="m501.41 10.606c-14.12-14.142-37.225-14.142-51.345 0l-20.716 20.748 51.345 51.424 20.716-20.748c14.12-14.142 14.12-37.282 0-51.424z" fill="#ff936b"/><path d="m501.41 10.606-46.389 46.46 25.672 25.712 20.717-20.748c14.12-14.142 14.12-37.282 0-51.424z" fill="#ff5c5c"/></g></g></g></svg>